<svg xmlns="http://www.w3.org/2000/svg" width="512" height="512" viewBox="0 0 512 512">
	<rect width="100%" height="100%" fill="#3a2b2b" />

	<!-- Cloche (dome) -->
	<path d="M256 120c-72 0-130 40-130 88h260c0-48-58-88-130-88z" fill="#f0b400" />
	<path d="M326 128c0-18-14-32-32-32h-28c-18 0-32 14-32 32h92z" fill="#d69a00" opacity="0.15" />
	<circle cx="256" cy="94" r="8" fill="#f0b400" />

	<!-- Fork (left) -->
	<rect x="96" y="142" width="8" height="84" rx="3" fill="#f0b400" />
	<rect x="88" y="142" width="24" height="8" rx="2" fill="#f0b400" />
	<rect x="88" y="166" width="24" height="8" rx="2" fill="#f0b400" />

	<!-- Spoon (right) -->
	<rect x="388" y="142" width="8" height="84" rx="3" fill="#f0b400" />
	<ellipse cx="392" cy="146" rx="14" ry="18" fill="#f0b400" />

	<!-- Text: Restaurant -->
	<text x="50%" y="320" text-anchor="middle" fill="#fff8f2" font-family="Georgia, 'Times New Roman', serif" font-size="56">Restaurant</text>
	<text x="50%" y="360" text-anchor="middle" fill="#f8efe7" font-family="Arial, Helvetica, sans-serif" font-size="20" letter-spacing="6">LUXURY</text>

</svg>